<svg xmlns="http://www.w3.org/2000/svg" version="1.1" xmlns:xlink="http://www.w3.org/1999/xlink" xmlns:svgjs="http://svgjs.dev/svgjs" width="1000" height="623" viewBox="0 0 1000 623"><g transform="matrix(1,0,0,1,-0.6060606060606233,0.2522267206477409)"><svg viewBox="0 0 396 247" data-background-color="#ffffff" preserveAspectRatio="xMidYMid meet" height="623" width="1000" xmlns="http://www.w3.org/2000/svg" xmlns:xlink="http://www.w3.org/1999/xlink"><g id="tight-bounds" transform="matrix(1,0,0,1,0.2400000000000091,-0.09999999999999432)"><svg viewBox="0 0 395.52 247.2" height="247.2" width="395.52"><g><svg></svg></g><g><svg viewBox="0 0 395.52 247.2" height="247.2" width="395.52"><g transform="matrix(1,0,0,1,121.27225552560647,47.215199999999996)"><svg viewBox="0 0 152.97548894878705 152.7696" height="152.7696" width="152.97548894878705"><g><svg viewBox="0 0 152.97548894878705 152.7696" height="152.7696" width="152.97548894878705"><g><svg viewBox="0 0 152.97548894878705 152.7696" height="152.7696" width="152.97548894878705"><g><svg viewBox="0 0 152.97548894878705 152.7696" height="152.7696" width="152.97548894878705"><g id="textblocktransform"><svg viewBox="0 0 152.97548894878705 152.7696" height="152.7696" width="152.97548894878705" id="textblock"><g><svg viewBox="0 0 152.97548894878705 152.7696" height="152.7696" width="152.97548894878705"><g transform="matrix(1,0,0,1,0,0)"><svg width="152.97548894878705" viewBox="4.400000095367432 -37.099998474121094 37.14999771118164 37.099998474121094" height="152.7696" data-palette-color="#ff5858"><path d="M5.2 0L5.2 0Q4.4 0 4.4-0.85L4.4-0.85 4.4-36.35Q4.4-37.1 5.1-37.1L5.1-37.1 11.65-37.1Q12.1-37.1 12.3-36.98 12.5-36.85 12.6-36.5L12.6-36.5 22.6-10.25Q22.8-9.8 23-9.83 23.2-9.85 23.35-10.3L23.35-10.3 33.2-36.3Q33.5-37.1 34.1-37.1L34.1-37.1 40.9-37.1Q41.55-37.1 41.55-36.35L41.55-36.35 41.55-0.9Q41.55 0 40.65 0L40.65 0 36.35 0Q35.9 0 35.7-0.18 35.5-0.35 35.5-0.8L35.5-0.8 35.5-28.2Q35.5-28.5 35.38-28.45 35.25-28.4 35.2-28.15L35.2-28.15 24.9-0.7Q24.65 0 23.95 0L23.95 0 20.95 0Q20.15 0 19.9-0.65L19.9-0.65 9.8-27.85Q9.65-28.15 9.55-28.15 9.45-28.15 9.45-27.85L9.45-27.85 9.45-0.7Q9.45-0.35 9.3-0.18 9.15 0 8.7 0L8.7 0 5.2 0Z" opacity="1" transform="matrix(1,0,0,1,0,0)" fill="#ff5858" class="wordmark-text-0" data-fill-palette-color="primary" id="text-0"></path></svg></g></svg></g></svg></g></svg></g></svg></g></svg></g></svg></g><g><path d="M200.088 0c30.402 0 58.24 10.976 79.768 29.183l-11.147 0c-19.26-14.022-42.974-22.294-68.621-22.295-25.647 0-49.361 8.272-68.621 22.295l-11.147 0c21.528-18.206 49.366-29.183 79.768-29.183zM323.688 123.6c0 11.69-1.623 23.001-4.656 33.719v-67.438c3.033 10.719 4.655 22.03 4.656 33.719zM200.088 247.2c-30.402 0-58.24-10.976-79.768-29.183l11.147 0c19.26 14.022 42.974 22.294 68.621 22.295 25.647 0 49.361-8.272 68.621-22.295l11.147 0c-21.528 18.206-49.366 29.183-79.768 29.183z" fill="#ff5858" stroke="transparent" data-fill-palette-color="tertiary"></path></g></svg></g><defs></defs></svg><rect width="395.52" height="247.2" fill="none" stroke="none" visibility="hidden"></rect></g></svg></g></svg>